  <svg
            xmlns="http://www.w3.org/2000/svg"
            xmlnsXlink="http://www.w3.org/1999/xlink"
            width="30px"
            height="30px"
            viewBox="0 0 30 30"
            version="1.1"
          >
            <g id="surface1">
              <path
                className="stroke:none;fill-rule:nonzero;fill:rgb(0%,0%,0%);fill-opacity:1;"
                d="M 30 17.546875 L 25.714844 10.496094 L 21.230469 10.496094 L 21.230469 18.679688 L 26.367188 18.679688 L 26.367188 17.429688 L 22.480469 17.429688 L 22.480469 11.746094 L 25.011719 11.746094 L 28.75 17.894531 L 28.75 23.027344 L 27.25 23.027344 C 26.957031 21.5625 25.664062 20.457031 24.117188 20.457031 C 22.570312 20.457031 21.273438 21.5625 20.984375 23.027344 L 19.890625 23.027344 L 19.890625 10.496094 L 18.050781 10.496094 L 18.050781 6.820312 L 12.363281 6.820312 C 11.308594 4.652344 9.082031 3.152344 6.507812 3.152344 C 2.921875 3.152344 0 6.074219 0 9.664062 C 0 12.496094 1.820312 14.914062 4.355469 15.804688 L 4.355469 24.277344 L 7.105469 24.277344 C 7.394531 25.742188 8.691406 26.847656 10.238281 26.847656 C 11.785156 26.847656 13.078125 25.742188 13.371094 24.277344 L 20.984375 24.277344 C 21.273438 25.742188 22.570312 26.847656 24.117188 26.847656 C 25.664062 26.847656 26.957031 25.742188 27.25 24.277344 L 30 24.277344 Z M 1.25 9.664062 C 1.25 6.761719 3.609375 4.402344 6.507812 4.402344 C 9.410156 4.402344 11.769531 6.761719 11.769531 9.664062 C 11.769531 12.5625 9.410156 14.921875 6.507812 14.921875 C 3.609375 14.921875 1.25 12.5625 1.25 9.664062 Z M 10.238281 25.597656 C 9.164062 25.597656 8.292969 24.722656 8.292969 23.652344 C 8.292969 22.582031 9.164062 21.707031 10.238281 21.707031 C 11.308594 21.707031 12.183594 22.582031 12.183594 23.652344 C 12.183594 24.722656 11.308594 25.597656 10.238281 25.597656 Z M 18.640625 23.027344 L 13.371094 23.027344 C 13.078125 21.5625 11.785156 20.457031 10.238281 20.457031 C 8.691406 20.457031 7.394531 21.5625 7.105469 23.027344 L 5.605469 23.027344 L 5.605469 16.109375 C 5.898438 16.152344 6.203125 16.171875 6.507812 16.171875 C 10.097656 16.171875 13.019531 13.253906 13.019531 9.664062 C 13.019531 9.113281 12.949219 8.578125 12.820312 8.070312 L 16.800781 8.070312 L 16.800781 11.746094 L 18.640625 11.746094 Z M 24.117188 25.597656 C 23.042969 25.597656 22.171875 24.722656 22.171875 23.652344 C 22.171875 22.582031 23.042969 21.707031 24.117188 21.707031 C 25.1875 21.707031 26.0625 22.582031 26.0625 23.652344 C 26.0625 24.722656 25.1875 25.597656 24.117188 25.597656 Z M 24.117188 25.597656 "
              ></path>
              <path
                className="stroke:none;fill-rule:nonzero;fill:rgb(0%,0%,0%);fill-opacity:1;"
                d="M 8.851562 9.039062 L 7.132812 9.039062 L 7.132812 5.378906 L 5.882812 5.378906 L 5.882812 10.289062 L 8.851562 10.289062 Z M 8.851562 9.039062 "
              ></path>
            </g>
          </svg>